<?xml version="1.0" encoding="UTF-8" standalone="no"?><!DOCTYPE svg PUBLIC "-//W3C//DTD SVG 1.1//EN" "http://www.w3.org/Graphics/SVG/1.1/DTD/svg11.dtd"><svg width="100%" height="100%" viewBox="0 0 21 33" version="1.1" xmlns="http://www.w3.org/2000/svg" xmlns:xlink="http://www.w3.org/1999/xlink" xml:space="preserve" xmlns:serif="http://www.serif.com/" style="fill-rule:evenodd;clip-rule:evenodd;stroke-linejoin:round;stroke-miterlimit:1.41421;"><path id="形狀-3" serif:id="形狀 3" d="M10,16c-2.209,0 -4,-1.791 -4,-4l-6,0l0,10c0,5.521 4.477,10 10,10c5.523,0 10,-4.479 10,-10l0,-10l-6,0c0,2.209 -1.791,4 -4,4Zm-4,-8c0,-2.209 1.791,-4 4,-4c2.209,0 4,1.791 4,4l0,2l6,0c0,-5.523 -4.477,-10 -10,-10c-5.523,0 -10,4.477 -10,10l6,0l0,-2Zm3,-1l0,6c0,0.552 0.448,1 1,1c0.552,0 1,-0.448 1,-1l0,-6c0,-0.552 -0.448,-1 -1,-1c-0.552,0 -1,0.448 -1,1Z" style="fill:#fff;fill-rule:nonzero;"/></svg>