<svg width="348" height="65" viewBox="0 0 348 65" fill="none" xmlns="http://www.w3.org/2000/svg">
<g clip-path="url(#clip0_770_34)">
<path d="M54.8732 45.145L73.1121 55.3134L55.8749 43.8674C55.8123 43.8255 55.7601 43.7941 55.6975 43.7522C44.9817 36.4427 56.4175 24.1171 67.6029 28.5782C67.6655 28.5992 67.7177 28.6306 67.7803 28.6515L84.6941 35.5945L68.5315 27.6776C62.0415 24.4941 60.2364 18.9753 63.6066 14.996L69.9297 7.53987L62.5006 14.5771C59.5164 17.415 54.3515 18.8287 49.6666 18.3889C48.018 18.2318 46.4111 17.7501 44.919 17.0275C39.4307 14.3362 37.9073 9.6657 40.7558 6.30417L46.0981 0L39.8167 5.95859C36.5091 9.10021 30.0399 10.1788 25.4698 8.36717L16.7781 4.92186L24.7811 8.98502C24.8855 9.03738 24.9898 9.08974 25.0941 9.15257C31.9181 12.9749 22.5378 22.6406 14.5035 18.7869C14.3783 18.724 14.2635 18.6717 14.1487 18.6088L5.38403 13.9278L13.2722 19.4047C17.5398 22.3683 17.6442 28.7353 12.6775 34.3274L0 48.5798L13.6583 35.1023C17.5085 31.3009 22.7152 29.5102 27.5983 30.0024C31.6781 30.4213 34.8397 33.7828 34.8397 37.8983C34.8397 41.1028 33.3997 44.7471 30.3843 48.14L15.4113 65L31.5633 49.0615C37.9908 42.7155 47.6006 41.1028 54.8524 45.145H54.8732ZM43.4896 17.5512C50.5326 21.4886 44.5852 31.5209 36.2274 30.7773C34.0154 30.5784 32.0016 29.3113 31.0312 27.3006C28.2557 21.5515 34.8188 14.0325 43.4896 17.5512Z" fill="white"/>
<path d="M103.455 52.6953V52.1403C103.455 51.6272 103.455 51.4596 103.413 50.9256L106.324 50.9465C106.387 50.9675 106.47 51.0722 106.47 51.1874C106.47 51.334 106.387 51.5225 106.324 51.6063V52.6953H112.845V53.7111H106.324V55.7532H111.854V56.769H106.324V59.1147H114.348V60.1514H95.3056V59.1147H103.455V56.769H98.1333V55.7532H103.455V53.7111H99.3541C97.9976 55.5019 96.6099 56.3606 96.0569 56.7166L95.0656 55.994C96.9855 54.1195 97.8515 51.7319 97.9141 50.559L101.034 51.2397C101.034 51.2397 101.097 51.3654 101.097 51.4282C101.097 51.6167 100.867 51.7424 100.742 51.8157C100.387 52.3184 100.293 52.4754 100.126 52.7058H103.465L103.455 52.6953ZM112.512 44.0559V50.4857H97.1211V44.0559H112.512ZM109.663 46.7053V45.0612H99.9697V46.7053H109.663ZM99.9697 47.7211V49.449H109.663V47.7211H99.9697Z" fill="white"/>
<path d="M136.176 44.7994C136.176 44.2444 136.155 44.0035 136.134 43.459L138.691 43.5009C138.837 43.5009 138.941 43.6265 138.941 43.7417C138.941 43.836 138.879 43.9616 138.837 44.0768V45.5115H141.477V46.5273H138.837V48.1086H141.091V48.5275C143.073 47.0718 144.555 44.967 144.951 43.5742H148.478C149.01 45.4173 151.055 47.5536 152.808 48.7683L151.9 49.6899C150.461 48.9568 148.415 47.6059 146.767 45.6581C145.984 46.6006 144.357 48.1819 141.487 49.6584L141.091 49.25V52.2031L141.748 51.5434C142.698 52.1194 143.355 52.5801 144.012 53.2399V50.8104H141.644V49.7946H146.287V57.146C147.403 56.5595 148.781 55.3971 149.302 54.8421L149.553 55.2086V53.3865L148.228 54.6745C147.487 53.4179 146.986 52.8315 146.516 52.3498L147.195 51.6691C147.706 51.9623 148.718 52.6116 149.542 53.2922V50.7999H146.923V49.7841H151.859V58.7586C151.859 60.12 151.525 60.6017 149.918 60.6017H147.529L147.111 59.387C148.04 59.5126 148.572 59.5545 148.885 59.5545C149.542 59.5545 149.542 59.3346 149.542 58.8948V56.3187C149.052 56.926 148.927 57.0517 147.643 58.3293C147.497 58.5283 147.476 58.5492 147.372 58.5492C147.33 58.5492 147.247 58.5073 147.226 58.4759L146.276 57.2611V59.0309C146.276 59.9943 145.984 60.6122 144.753 60.6122H142.197L141.738 59.3974C142.437 59.5126 143.073 59.565 143.47 59.565C144.002 59.565 144.002 59.2718 144.002 59.01V56.5072C143.751 56.8004 143.178 57.4811 142.165 58.4654C142.145 58.5597 142.103 58.7272 141.915 58.7272C141.873 58.7272 141.811 58.6853 141.79 58.6749L140.882 57.5544H138.753V60.7064H136.114V57.5544H133.265V56.5176H136.114V54.8421H133.902V48.1295H136.145V46.5482H133.276V45.5324H136.145V44.8308L136.176 44.7994ZM138.649 50.8313V49.1139H136.301V50.8313H138.649ZM136.301 51.868V53.7844H138.649V51.868H136.301ZM142.718 54.5908C142.228 53.575 141.435 52.6744 141.091 52.3602V54.8107H138.785V56.4862H141.592V56.8004C141.8 56.6747 142.666 56.1511 143.877 54.9782L144.023 55.2191V53.376L142.718 54.5908Z" fill="white"/>
<path d="M190.663 46.1293V47.166H180.469C180.135 47.7734 179.833 48.3284 179.165 49.1976H188.243V58.3187C188.243 59.7953 188.076 60.5493 185.749 60.5493H182.535L182.118 59.3555C182.671 59.4288 183.38 59.544 184.351 59.544C185.384 59.544 185.384 59.1251 185.384 58.3606V56.4861H178.716V60.7273H175.868V52.5486C175.43 52.8942 174.115 53.9833 171.882 55.219L171.016 54.4231C172.977 53.1351 176.087 50.538 177.537 47.1765H171.371V46.1397H177.934C178.403 44.7574 178.487 43.8568 178.549 43.3228L181.544 43.7835C181.669 43.8045 181.836 43.8359 181.836 44.0244C181.836 44.171 181.732 44.2862 181.607 44.37C181.398 45.0297 181.231 45.4905 180.97 46.1397H190.663V46.1293ZM185.384 52.3078V50.2029H178.716V52.3078H185.384ZM178.716 53.3445V55.4599H185.384V53.3445H178.716Z" fill="white"/>
<path d="M217.177 45.061L214.829 50.8102C215.716 51.9935 216.978 53.6271 216.978 55.7844C216.978 58.0882 215.413 58.0882 214.766 58.0882H213.013L212.638 56.9468C212.826 56.9677 212.992 56.9991 213.295 56.9991C214.036 56.9991 214.432 56.8735 214.432 55.4493C214.432 53.9518 214.036 52.8836 212.867 50.7892L214.474 45.0924H212.45V60.6539H209.956V44.0662H217.177V45.061ZM228.915 53.9099C228.978 53.9622 229.019 54.0251 229.019 54.0774C229.019 54.224 228.811 54.2659 228.56 54.3183C227.527 54.8943 226.661 55.3131 225.378 55.8263C225.952 57.1876 227.172 58.4966 229.071 59.8266L228.226 60.6539C225.941 59.5648 222.55 57.5018 221.83 52.1611H220.609V57.8578C222.049 57.5437 222.571 57.418 223.458 57.1772L223.312 58.2663C220.119 59.3868 218.481 59.8685 216.665 60.3502C216.582 60.4968 216.498 60.612 216.331 60.612C216.185 60.612 216.123 60.5177 216.06 60.3921L215.236 58.8213C216.394 58.727 217.646 58.4757 217.917 58.4129V44.0766H227.757V52.1715H224.616C224.7 53.2397 224.846 54.0356 224.992 54.6639C226.369 53.5748 227.058 52.6951 227.225 52.4124L228.894 53.9204L228.915 53.9099ZM225.075 47.5743V45.1029H220.62V47.5743H225.075ZM220.62 48.5901V51.1348H225.075V48.5901H220.62Z" fill="white"/>
<path d="M254.593 44.4748C254.593 44.4748 254.698 44.5899 254.698 44.6423C254.698 44.6842 254.698 44.7156 254.426 45.0821C253.331 47.7734 251.286 50.9046 248.114 53.0828L247.227 52.423C251.004 48.9044 251.348 44.3281 251.411 43.6475L254.593 44.4748ZM258.245 49.1558C258.308 49.1767 258.371 49.2291 258.371 49.2709C258.371 49.3861 258.183 49.5851 258.016 49.7736C256.409 52.7058 254.427 55.8893 252.611 58.256C255.71 58.0361 256.367 57.9837 262.221 57.4601C261.647 56.4652 261.042 55.4704 259.31 53.0932L260.28 52.4859C261.209 53.355 264.715 56.6747 266.468 59.3974L263.849 60.9054C263.619 60.298 263.41 59.7639 262.753 58.434C253.78 59.8163 252.788 59.9839 249.032 60.3923C248.761 60.5389 248.719 60.5598 248.615 60.5598C248.573 60.5598 248.448 60.5179 248.427 60.4446L247.686 58.4864C248.844 58.5073 249.439 58.4654 250.576 58.3712C251.776 56.3291 254.374 51.1664 254.99 48.3494L258.225 49.1558H258.245ZM262.826 43.9407C262.93 47.8258 264.642 50.2763 267.094 52.4021L266.29 53.1561C262.743 50.8522 260.781 48.674 259.811 44.9774H256.472V43.9407H262.826Z" fill="white"/>
<path d="M303.519 44.0872V58.5595C303.519 59.4601 303.477 60.5492 301.411 60.5492H297.509L297.154 59.3345C297.853 59.4601 299.012 59.5544 299.711 59.5544C300.723 59.5544 300.744 59.2402 300.744 58.371V45.1029H286.178V44.0872H303.509H303.519ZM299.377 47.6267V48.6634H286.668V47.6267H299.377ZM298.052 50.9673V57.439H290.602V58.4548H287.732V50.9673H298.052ZM290.602 52.004V56.4128H295.245V52.004H290.602Z" fill="white"/>
<path d="M219.462 14.022V12.2208C219.462 12.0846 219.336 11.9904 219.18 11.9904H202.767C201.87 11.9904 201.129 12.6815 201.035 13.5612C201.035 13.6136 201.035 13.6764 201.035 13.7392C201.035 13.8021 201.035 13.8649 201.035 13.9173V24.9757C201.035 25.9392 201.807 26.7141 202.767 26.7141H219.169C219.326 26.7141 219.451 26.6198 219.451 26.4837V22.0959H212.857V17.8338H224.846V26.4837C224.846 28.9656 222.289 30.9657 219.18 30.9657H201.327C198.207 30.9657 195.693 28.9656 195.693 26.4837V12.2208C195.693 9.72843 198.207 7.72827 201.327 7.72827H219.18C222.289 7.72827 224.846 9.72843 224.846 12.2208V14.022H219.451H219.462Z" fill="white"/>
<path d="M266.28 8.01099V30.7772H261.042V21.478H242.323V30.7772H237.085V8.01099H242.323V17.3102H261.042V8.01099H266.28Z" fill="white"/>
<path d="M135.435 8.01099H140.673V30.7772H135.435V8.01099Z" fill="white"/>
<path d="M342.731 8.01099H348V30.7772H342.293L324.69 14.0848V30.7772H319.452V8.01099H325.16L342.72 24.7034V8.01099H342.731Z" fill="white"/>
<path d="M177.746 8.01099H183.015V30.7772H177.308L159.705 14.0848V30.7772H154.467V8.01099H160.175L177.735 24.7034V8.01099H177.746Z" fill="white"/>
<path d="M310.479 30.7878H304.104L292.563 14.4095L281.023 30.7878H274.648L289.381 9.88557L289.642 9.51904C291.071 7.48747 294.066 7.48747 295.495 9.51904L295.756 9.88557L310.489 30.7878H310.479Z" fill="white"/>
<path d="M121.631 8.01099V9.12102L110.769 19.3941L121.631 29.6672V30.7772H115.882L107.357 22.7137C104.54 25.3736 101.608 28.1173 98.8324 30.7772H93.0831V29.6672L103.903 19.3941L93.0831 9.12102V8.01099H98.8324L107.357 16.0745C110.174 13.4146 113.106 10.6709 115.882 8.01099H121.631Z" fill="white"/>
</g>
<defs>
<clipPath id="clip0_770_34">
<rect width="348" height="65" fill="white"/>
</clipPath>
</defs>
</svg>
