<svg width="274" height="51" viewBox="0 0 274 51" fill="none" xmlns="http://www.w3.org/2000/svg">
<g clip-path="url(#clip0_755_966)">
<path d="M43.2048 35.4215L57.5653 43.3997L43.9935 34.419C43.9442 34.3862 43.9031 34.3615 43.8538 34.3287C35.4166 28.5935 44.4207 18.9227 53.2276 22.4229C53.2769 22.4393 53.3179 22.464 53.3672 22.4804L66.6844 27.928L53.9587 21.7163C48.8488 19.2185 47.4275 14.8884 50.0811 11.7661L55.0596 5.9159L49.2102 11.4374C46.8606 13.6641 42.794 14.7733 39.1053 14.4282C37.8073 14.305 36.5421 13.927 35.3673 13.3601C31.046 11.2484 29.8465 7.58386 32.0894 4.94635L36.2956 0L31.35 4.67521C28.7457 7.14016 23.6521 7.98647 20.0538 6.56501L13.2104 3.86177L19.5116 7.04978C19.5937 7.09086 19.6759 7.13195 19.758 7.18125C25.1309 10.1803 17.7453 17.7641 11.4194 14.7405C11.3208 14.6912 11.2305 14.6501 11.1401 14.6008L4.23915 10.928L10.45 15.2252C13.8101 17.5505 13.8922 22.5462 9.98171 26.9338L0 38.1165L10.754 27.5418C13.7854 24.5592 17.8849 23.1542 21.7297 23.5404C24.942 23.869 27.4312 26.5065 27.4312 29.7356C27.4312 32.2499 26.2975 35.1092 23.9232 37.7714L12.1341 51L24.8516 38.4944C29.9123 33.5152 37.4787 32.2499 43.1884 35.4215H43.2048ZM34.2418 13.7709C39.7872 16.8603 35.1044 24.7318 28.5239 24.1484C26.7822 23.9923 25.1966 22.9981 24.4326 21.4205C22.2473 16.9096 27.4148 11.0101 34.2418 13.7709Z" fill="#4C63F5"/>
<path d="M81.4557 41.3455V40.9101C81.4557 40.5074 81.4557 40.376 81.4228 39.9569L83.7149 39.9734C83.7642 39.9898 83.83 40.072 83.83 40.1624C83.83 40.2774 83.7642 40.4253 83.7149 40.491V41.3455H88.8496V42.1425H83.7149V43.7448H88.0691V44.5418H83.7149V46.3823H90.0326V47.1957H75.0395V46.3823H81.4557V44.5418H77.2659V43.7448H81.4557V42.1425H78.2271C77.1591 43.5476 76.0664 44.2213 75.631 44.5007L74.8505 43.9337C76.3622 42.463 77.044 40.5896 77.0933 39.6694L79.5497 40.2034C79.5497 40.2034 79.599 40.302 79.599 40.3513C79.599 40.4992 79.4183 40.5978 79.3197 40.6553C79.0404 41.0497 78.9664 41.173 78.835 41.3537H81.4639L81.4557 41.3455ZM88.5867 34.5669V39.6118H76.469V34.5669H88.5867ZM86.3439 36.6457V35.3557H78.7118V36.6457H86.3439ZM78.7118 37.4427V38.7984H86.3439V37.4427H78.7118Z" fill="black"/>
<path d="M107.219 35.1503C107.219 34.7149 107.203 34.5259 107.186 34.0986L109.199 34.1315C109.314 34.1315 109.396 34.2301 109.396 34.3205C109.396 34.3944 109.347 34.493 109.314 34.5834V35.7091H111.393V36.5061H109.314V37.7468H111.089V38.0754C112.65 36.9333 113.816 35.2818 114.128 34.189H116.905C117.324 35.6351 118.934 37.3113 120.315 38.2644L119.6 38.9875C118.466 38.4123 116.856 37.3524 115.558 35.8241C114.942 36.5636 113.66 37.8043 111.401 38.9628L111.089 38.6424V40.9594L111.606 40.4418C112.354 40.8937 112.871 41.2552 113.389 41.7729V39.8666H111.524V39.0696H115.18V44.8376C116.059 44.3775 117.143 43.4655 117.554 43.03L117.751 43.3176V41.8879L116.708 42.8985C116.125 41.9126 115.73 41.4524 115.361 41.0745L115.895 40.5404C116.297 40.7705 117.094 41.2799 117.743 41.814V39.8584H115.681V39.0614H119.567V46.103C119.567 47.1711 119.304 47.5491 118.039 47.5491H116.158L115.829 46.596C116.56 46.6946 116.979 46.7274 117.226 46.7274C117.743 46.7274 117.743 46.5549 117.743 46.2098V44.1885C117.357 44.6651 117.258 44.7637 116.248 45.7661C116.133 45.9222 116.117 45.9387 116.034 45.9387C116.001 45.9387 115.936 45.9058 115.919 45.8811L115.172 44.928V46.3166C115.172 47.0725 114.942 47.5573 113.972 47.5573H111.96L111.598 46.6042C112.148 46.6946 112.65 46.7357 112.962 46.7357C113.381 46.7357 113.381 46.5056 113.381 46.3002V44.3364C113.184 44.5665 112.732 45.1006 111.935 45.8729C111.918 45.9469 111.886 46.0783 111.738 46.0783C111.705 46.0783 111.656 46.0455 111.639 46.0372L110.924 45.1581H109.248V47.6313H107.17V45.1581H104.927V44.3446H107.17V43.03H105.428V37.7632H107.195V36.5225H104.935V35.7255H107.195V35.175L107.219 35.1503ZM109.166 39.8831V38.5356H107.318V39.8831H109.166ZM107.318 40.6965V42.2001H109.166V40.6965H107.318ZM112.37 42.8328C111.984 42.0358 111.36 41.3292 111.089 41.0827V43.0054H109.273V44.32H111.483V44.5665C111.647 44.4679 112.329 44.0571 113.282 43.1368L113.397 43.3258V41.8797L112.37 42.8328Z" fill="black"/>
<path d="M150.12 36.1937V37.0072H142.094C141.831 37.4837 141.592 37.9192 141.067 38.6012H148.214V45.7578C148.214 46.9163 148.083 47.5079 146.251 47.5079H143.72L143.392 46.5712C143.827 46.6287 144.386 46.7191 145.15 46.7191C145.963 46.7191 145.963 46.3904 145.963 45.7906V44.3199H140.713V47.6476H138.471V41.2305C138.126 41.5016 137.09 42.3561 135.332 43.3257L134.65 42.7012C136.195 41.6906 138.643 39.6529 139.785 37.0154H134.93V36.2019H140.097C140.467 35.1174 140.533 34.4107 140.582 33.9917L142.94 34.3532C143.038 34.3697 143.17 34.3943 143.17 34.5422C143.17 34.6572 143.088 34.7476 142.989 34.8134C142.825 35.331 142.693 35.6925 142.488 36.2019H150.12V36.1937ZM145.963 41.0415V39.39H140.713V41.0415H145.963ZM140.713 41.8549V43.5147H145.963V41.8549H140.713Z" fill="black"/>
<path d="M170.995 35.3558L169.147 39.8666C169.845 40.7951 170.839 42.0769 170.839 43.7695C170.839 45.5771 169.607 45.5771 169.098 45.5771H167.717L167.422 44.6815C167.57 44.698 167.701 44.7226 167.939 44.7226C168.523 44.7226 168.835 44.624 168.835 43.5066C168.835 42.3316 168.523 41.4935 167.602 39.8502L168.868 35.3804H167.274V47.5902H165.31V34.5752H170.995V35.3558ZM180.238 42.2987C180.287 42.3398 180.32 42.3891 180.32 42.4302C180.32 42.5452 180.156 42.5781 179.958 42.6192C179.145 43.0711 178.463 43.3997 177.453 43.8024C177.905 44.8705 178.866 45.8976 180.361 46.9411L179.695 47.5902C177.896 46.7357 175.226 45.117 174.659 40.9266H173.698V45.3964C174.832 45.1499 175.243 45.0513 175.941 44.8623L175.826 45.7168C173.312 46.596 172.022 46.9739 170.593 47.3519C170.527 47.4669 170.461 47.5573 170.33 47.5573C170.215 47.5573 170.166 47.4834 170.116 47.3848L169.467 46.1523C170.379 46.0783 171.365 45.8811 171.579 45.8318V34.5834H179.326V40.9348H176.853C176.919 41.7729 177.034 42.3973 177.149 42.8903C178.233 42.0358 178.775 41.3456 178.907 41.1238L180.221 42.307L180.238 42.2987ZM177.214 37.3277V35.3886H173.706V37.3277H177.214ZM173.706 38.1247V40.1214H177.214V38.1247H173.706Z" fill="black"/>
<path d="M200.456 34.8954C200.456 34.8954 200.538 34.9858 200.538 35.0269C200.538 35.0598 200.538 35.0844 200.324 35.372C199.462 37.4836 197.851 39.9404 195.354 41.6494L194.656 41.1318C197.63 38.371 197.901 34.7804 197.95 34.2463L200.456 34.8954ZM203.331 38.5682C203.38 38.5847 203.43 38.6257 203.43 38.6586C203.43 38.749 203.282 38.9051 203.15 39.053C201.885 41.3536 200.324 43.8515 198.895 45.7084C201.335 45.5359 201.852 45.4948 206.461 45.0839C206.009 44.3034 205.533 43.5228 204.169 41.6576L204.933 41.1811C205.664 41.8631 208.425 44.4677 209.805 46.604L207.743 47.7872C207.562 47.3106 207.398 46.8916 206.88 45.8481C199.815 46.9327 199.035 47.0641 196.077 47.3846C195.863 47.4996 195.831 47.516 195.748 47.516C195.715 47.516 195.617 47.4832 195.6 47.4257L195.017 45.8892C195.929 45.9056 196.397 45.8727 197.293 45.7988C198.238 44.1966 200.283 40.1458 200.768 37.9356L203.315 38.5682H203.331ZM206.938 34.4764C207.02 37.5247 208.367 39.4474 210.298 41.1154L209.665 41.7069C206.872 39.8993 205.328 38.1903 204.563 35.2898H201.935V34.4764H206.938Z" fill="black"/>
<path d="M238.978 34.5916V45.9468C238.978 46.6534 238.945 47.5079 237.318 47.5079H234.246L233.966 46.5548C234.517 46.6534 235.429 46.7274 235.979 46.7274C236.776 46.7274 236.793 46.4809 236.793 45.7989V35.3886H225.324V34.5916H238.97H238.978ZM235.716 37.3687V38.1822H225.71V37.3687H235.716ZM234.673 39.9898V45.0676H228.807V45.8646H226.548V39.9898H234.673ZM228.807 40.8033V44.2624H232.463V40.8033H228.807Z" fill="black"/>
<path d="M172.794 11.0019V9.58861C172.794 9.4818 172.696 9.40785 172.573 9.40785H159.65C158.943 9.40785 158.36 9.95014 158.286 10.6403C158.286 10.6814 158.286 10.7307 158.286 10.78C158.286 10.8293 158.286 10.8786 158.286 10.9197V19.5963C158.286 20.3523 158.894 20.9603 159.65 20.9603H172.564C172.688 20.9603 172.786 20.8863 172.786 20.7795V17.3368H167.594V13.9927H177.034V20.7795C177.034 22.7268 175.021 24.2962 172.573 24.2962H158.516C156.06 24.2962 154.08 22.7268 154.08 20.7795V9.58861C154.08 7.63308 156.06 6.06372 158.516 6.06372H172.573C175.021 6.06372 177.034 7.63308 177.034 9.58861V11.0019H172.786H172.794Z" fill="black"/>
<path d="M209.657 6.28564V24.1484H205.533V16.8521H190.794V24.1484H186.67V6.28564H190.794V13.5819H205.533V6.28564H209.657Z" fill="black"/>
<path d="M106.636 6.28564H110.76V24.1484H106.636V6.28564Z" fill="black"/>
<path d="M269.851 6.28564H274V24.1484H269.506L255.647 11.0512V24.1484H251.523V6.28564H256.016L269.843 19.3828V6.28564H269.851Z" fill="black"/>
<path d="M139.949 6.28564H144.098V24.1484H139.604L125.745 11.0512V24.1484H121.621V6.28564H126.115L139.941 19.3828V6.28564H139.949Z" fill="black"/>
<path d="M244.457 24.1565H239.438L230.352 11.3058L221.265 24.1565H216.246L227.846 7.75628L228.051 7.4687C229.177 5.87469 231.535 5.87469 232.66 7.4687L232.865 7.75628L244.466 24.1565H244.457Z" fill="black"/>
<path d="M95.7669 6.28564V7.1566L87.2147 15.217L95.7669 23.2774V24.1484H91.2402L84.5282 17.8217C82.3101 19.9087 80.0015 22.0614 77.8162 24.1484H73.2896V23.2774L81.8089 15.217L73.2896 7.1566V6.28564H77.8162L84.5282 12.6124C86.7464 10.5254 89.0549 8.37264 91.2402 6.28564H95.7669Z" fill="black"/>
</g>
<defs>
<clipPath id="clip0_755_966">
<rect width="274" height="51" fill="white"/>
</clipPath>
</defs>
</svg>
