<svg xmlns="http://www.w3.org/2000/svg" width="65" height="50" viewBox="0 0 65 50" fill="none">
  <path
    d="M42.1064 34.7257L56.1044 42.5451L42.8771 33.7416C42.8313 33.7133 42.7891 33.6814 42.7433 33.6531C34.5233 28.0354 43.2958 18.5487 51.8818 21.9858C51.9275 22.0035 51.9733 22.0212 52.019 22.0425L65 27.3876L52.5996 21.3027C47.6134 18.8566 46.234 14.6053 48.8169 11.5504L53.6658 5.81239L47.9618 11.2283C45.6675 13.4088 41.7053 14.4956 38.109 14.1558C36.8422 14.0354 35.6107 13.6673 34.467 13.1044C30.2515 11.0372 29.0832 7.44071 31.2684 4.85664L35.3714 0L30.5506 4.58053C28.01 6.99469 23.0484 7.83009 19.5366 6.4354L12.8684 3.78761L19.0088 6.91327C19.0897 6.95575 19.1706 6.99823 19.2481 7.04071C24.4876 9.97876 17.2881 17.4159 11.1231 14.4566C11.0316 14.4106 10.9401 14.3646 10.8486 14.3186L4.12408 10.7186L10.1765 14.9274C13.4525 17.2071 13.5264 22.1027 9.71552 26.4035L0 37.3699L10.4826 27.0018C13.4384 24.0779 17.4323 22.7009 21.1834 23.0832C24.3117 23.4018 26.7432 25.9929 26.7432 29.1575C26.7432 31.6248 25.6418 34.4212 23.3264 37.0336L11.8374 50L24.2342 37.7381C29.1677 32.8566 36.5396 31.6177 42.1099 34.7292L42.1064 34.7257ZM33.3692 13.5009C38.7776 16.531 34.2066 24.2478 27.7988 23.6743C26.0992 23.5221 24.558 22.5487 23.812 21.0018C21.6796 16.577 26.7221 10.7965 33.3692 13.4973V13.5009Z"
    fill="#4C63F5" />
</svg>