<svg xmlns="http://www.w3.org/2000/svg"  viewBox="0 0 253 84" fill="none">
  <g clip-path="url(#clip0_26_33)">
    <path d="M0 22.1372V44.0722L38.3105 22.0361L57.213 33.0541L76.2166 22.1372L38.0072 0L0 22.1372Z" fill="#FF3F29"/>
    <path d="M19.1047 33.0542V72.7798L38.2094 84V43.87L19.1047 33.0542Z" fill="#FF3F29"/>
    <path d="M87.7402 52.0578L71.5669 42.3538L38.2095 61.8628L55.3936 72.1733L87.7402 52.0578Z" fill="#FF3F29"/>
    <path d="M166.18 26.4838V24.7653C166.18 24.6643 166.079 24.5632 165.877 24.5632H150.209C149.3 24.5632 148.592 25.1697 148.592 26.0794V36.9964C148.592 37.9061 149.3 38.6137 150.209 38.6137H165.877C165.978 38.6137 166.18 38.5126 166.18 38.4116V34.2672H159.913V30.2238H171.336V38.4116C171.336 40.7365 168.91 42.657 165.877 42.657H148.794C145.863 42.657 143.437 40.7365 143.437 38.4116V24.7653C143.437 22.3394 145.863 20.5199 148.794 20.5199H165.877C168.809 20.5199 171.336 22.4404 171.336 24.7653V26.4838H166.18Z" fill="currentColor"/>
    <path d="M180.332 20.5199H185.487V42.657H180.332V20.5199Z" fill="currentColor"/>
    <path d="M191.856 20.4188H197.011V38.5126H219.755V42.556H191.856C191.856 42.657 191.856 20.4188 191.856 20.4188Z" fill="currentColor"/>
    <path d="M252.202 20.6209V24.6643H231.986H226.931V20.6209H252.202Z" fill="currentColor"/>
    <path d="M231.986 29.5163H252.202V33.5596H248.26H231.986V38.5126H252.202V42.4549H226.931V29.5163H231.986Z" fill="currentColor"/>
    <path d="M139.596 42.657H133.43L122.108 26.6859L110.787 42.657H104.52L118.874 22.3394L119.076 21.935C120.491 19.9134 123.422 19.9134 124.837 21.935L125.04 22.3394L139.596 42.657Z" fill="currentColor"/>
    <path d="M145.257 60.852H148.087V73.083H145.257V60.852Z" fill="currentColor"/>
    <path d="M249.372 60.852H252.203V73.083H249.17L239.668 64.1877V73.083H236.838V60.852H239.87L249.271 69.7473V60.852H249.372Z" fill="currentColor"/>
    <path d="M218.946 73.083H215.509L209.343 64.2888L203.177 73.083H199.74L207.625 61.8628L207.726 61.6607C208.534 60.5487 210.152 60.5487 210.859 61.6607L210.96 61.8628L218.946 73.083Z" fill="currentColor"/>
    <path d="M181.444 60.852V63.0758H175.177V72.982H172.347V63.0758H166.08V60.852H181.444Z" fill="currentColor"/>
    <path d="M122.109 60.852V63.0758H115.841V72.982H113.011V63.0758H106.744V60.852H122.109Z" fill="currentColor"/>
  </g>
  <defs>
    <clipPath id="clip0_26_33">
      <rect width="252.202" height="84" fill="currentColor"/>
    </clipPath>
  </defs>
</svg>