<svg xmlns="http://www.w3.org/2000/svg" width="40" height="40" viewBox="0 0 40 40" fill="none">
  <g clip-path="url(#clip0_4_356)">
    <path d="M20 39C30.4934 39 39 30.4934 39 20C39 9.50659 30.4934 1 20 1C9.50659 1 1 9.50659 1 20C1 30.4934 9.50659 39 20 39Z" stroke="#FC3F29" stroke-width="2" stroke-linecap="round" stroke-linejoin="round"/>
    <path d="M20 20C22.7614 20 25 17.7614 25 15C25 12.2386 22.7614 10 20 10C17.2386 10 15 12.2386 15 15C15 17.7614 17.2386 20 20 20Z" stroke="#FC3F29" stroke-width="2" stroke-linecap="round" stroke-linejoin="round"/>
    <path d="M10 36.15V34C10 29.58 13.58 26 18 26H22C26.42 26 30 29.58 30 34V36.15" stroke="#FC3F29" stroke-width="2" stroke-linecap="round" stroke-linejoin="round"/>
  </g>
  <defs>
    <clipPath id="clip0_4_356">
      <rect width="40" height="40" fill="white"/>
    </clipPath>
  </defs>
</svg>