<svg width="280" height="280" viewBox="0 0 280 280" fill="none" xmlns="http://www.w3.org/2000/svg">
<path d="M196.985 55.8474H91.0392V178.678H196.985V55.8474Z" fill="#4D63F5"/>
<path d="M196.985 46H91.0392V55.8474H196.985V46Z" fill="#242D3C"/>
<path d="M158.511 68.6891H107.561V70.5393H158.511V68.6891Z" fill="white"/>
<path d="M152.887 72.1704H123.718V74.0206H152.887V72.1704Z" fill="white"/>
<path d="M180.463 75.6517H119.418V77.5019H180.463V75.6517Z" fill="white"/>
<path d="M130.133 79.1329H119.418V80.9831H130.133V79.1329Z" fill="white"/>
<path d="M131.918 87.7509H107.561V89.6133H131.918V87.7509Z" fill="white"/>
<path d="M176.855 91.2322H119.418V93.0824H176.855V91.2322Z" fill="white"/>
<path d="M167.088 94.7135H119.418V96.5637H167.088V94.7135Z" fill="white"/>
<path d="M146.193 103.331H107.561V105.182H146.193V103.331Z" fill="white"/>
<path d="M160.929 106.813H119.418V108.675H160.929V106.813Z" fill="white"/>
<path d="M131.931 110.294H119.418V112.144H131.931V110.294Z" fill="white"/>
<path d="M174.438 113.775H126.938V115.625H174.438V113.775Z" fill="white"/>
<path d="M136.583 117.257H119.418V119.107H136.583V117.257Z" fill="white"/>
<path d="M134.324 125.875H107.561V127.725H134.324V125.875Z" fill="white"/>
<path d="M152.874 129.344H119.515V131.194H152.874V129.344Z" fill="white"/>
<path d="M140.034 132.837H119.515V134.687H140.034V132.837Z" fill="white"/>
<path d="M167.088 141.443H107.561V143.293H167.088V141.443Z" fill="white"/>
<path d="M134.336 144.924H119.418V146.774H134.336V144.924Z" fill="white"/>
<path d="M148.61 148.405H119.418V150.256H148.61V148.405Z" fill="white"/>
<path d="M177.9 151.887H133.571V153.737H177.9V151.887Z" fill="white"/>
<path d="M142.84 160.505H107.561V162.355H142.84V160.505Z" fill="white"/>
<path d="M161.828 163.986H119.418V165.836H161.828V163.986Z" fill="white"/>
<path d="M127.946 95.3221H22V228H127.946V95.3221Z" fill="white"/>
<path d="M127.946 95.3221H22V105.17H127.946V95.3221Z" fill="#242D3C"/>
<path d="M72.8045 111.876H33.1522V151.607H72.8045V111.876Z" fill="#4D63F5"/>
<path d="M52.9783 120.482C46.7705 120.482 41.7411 125.522 41.7411 131.742C41.7411 137.962 46.7705 143.001 52.9783 143.001C59.1862 143.001 64.2156 137.962 64.2156 131.742C64.2156 125.522 59.1862 120.482 52.9783 120.482ZM52.9783 134.261C51.5934 134.261 50.4758 133.141 50.4758 131.754C50.4758 130.366 51.5934 129.234 52.9783 129.234C54.3633 129.234 55.493 130.354 55.493 131.754C55.493 133.154 54.3754 134.261 52.9783 134.261Z" fill="white"/>
<path d="M54.4604 118.364H51.4962V120.738H54.4604V118.364Z" fill="white"/>
<path d="M47.589 119.401L45.0222 120.887L46.207 122.942L48.7738 121.457L47.589 119.401Z" fill="white"/>
<path d="M42.1606 123.77L40.6771 126.341L42.7281 127.529L44.2115 124.958L42.1606 123.77Z" fill="white"/>
<path d="M41.9841 130.257H39.6151V133.227H41.9841V130.257Z" fill="white"/>
<path d="M42.7125 135.961L40.6613 137.149L42.1443 139.721L44.1955 138.533L42.7125 135.961Z" fill="white"/>
<path d="M46.1931 140.534L45.0107 142.591L47.5794 144.073L48.7617 142.016L46.1931 140.534Z" fill="white"/>
<path d="M54.4604 142.758H51.4962V145.131H54.4604V142.758Z" fill="white"/>
<path d="M59.7507 140.537L57.1821 142.02L58.3644 144.076L60.933 142.594L59.7507 140.537Z" fill="white"/>
<path d="M63.2349 135.963L61.7532 138.536L63.805 139.722L65.2866 137.15L63.2349 135.963Z" fill="white"/>
<path d="M66.3294 130.257H63.9605V133.227H66.3294V130.257Z" fill="white"/>
<path d="M63.8078 123.762L61.7464 124.956L63.2298 127.528L65.2913 126.334L63.8078 123.762Z" fill="white"/>
<path d="M58.369 119.429L57.1841 121.484L59.7509 122.97L60.9358 120.914L58.369 119.429Z" fill="white"/>
<path d="M52.9783 126.215C49.9291 126.215 47.463 128.699 47.463 131.742C47.463 134.785 49.9413 137.268 52.9783 137.268C56.0154 137.268 58.4937 134.785 58.4937 131.742C58.4937 128.699 56.0276 126.215 52.9783 126.215ZM52.9783 134.237C51.6177 134.237 50.5001 133.117 50.5001 131.754C50.5001 130.391 51.6056 129.271 52.9783 129.271C54.3511 129.271 55.4566 130.391 55.4566 131.754C55.4566 133.117 54.3511 134.237 52.9783 134.237Z" fill="#242D3C"/>
<path d="M72.8045 157.839H33.1522V182.756H72.8045V157.839Z" fill="#16C6CC"/>
<path d="M116.782 157.839H77.1414V182.756H116.782V157.839Z" fill="#16C6CC"/>
<path d="M127.946 212.115H22V228H127.946V212.115Z" fill="#242D3C"/>
<path d="M116.782 110.854H78.332V112.923H116.782V110.854Z" fill="#242D3C"/>
<path d="M116.782 116.356H78.332V118.425H116.782V116.356Z" fill="#242D3C"/>
<path d="M90.9663 121.87H78.332V123.939H90.9663V121.87Z" fill="#242D3C"/>
<path d="M116.794 190.899H33.1522V192.968H116.794V190.899Z" fill="#242D3C"/>
<path d="M116.794 196.401H33.1522V198.47H116.794V196.401Z" fill="#242D3C"/>
<path d="M60.644 201.915H33.1522V203.984H60.644V201.915Z" fill="#242D3C"/>
<path d="M55.979 217.057H29.4227V219.126H55.979V217.057Z" fill="white"/>
<path d="M38.1452 220.989H29.4227V223.058H38.1452V220.989Z" fill="white"/>
<path d="M244.133 180.759C244.133 206.857 223.031 228 196.985 228C170.939 228 149.837 206.857 149.837 180.759C149.837 154.662 170.939 133.519 196.985 133.519C223.031 133.519 244.133 154.674 244.133 180.759Z" fill="#242D3C"/>
<path d="M237.974 180.759C237.974 203.448 219.618 221.841 196.973 221.841C174.328 221.841 155.972 203.448 155.972 180.759C155.972 158.07 174.328 139.678 196.973 139.678C219.618 139.678 237.974 158.07 237.974 180.759Z" fill="white"/>
<path d="M204.23 188.014C208.234 184.002 208.234 177.497 204.23 173.485C200.226 169.473 193.734 169.473 189.729 173.485C185.725 177.497 185.725 184.002 189.729 188.014C193.734 192.026 200.226 192.026 204.23 188.014Z" fill="#4D63F5"/>
<path d="M198.018 144.888H195.952V148.99H198.018V144.888Z" fill="#242D3C"/>
<path d="M191.775 145.263L189.742 145.624L190.455 149.663L192.488 149.303L191.775 145.263Z" fill="#242D3C"/>
<path d="M185.702 146.698L183.762 147.406L185.162 151.26L187.102 150.553L185.702 146.698Z" fill="#242D3C"/>
<path d="M179.968 149.167L178.179 150.201L180.227 153.754L182.015 152.719L179.968 149.167Z" fill="#242D3C"/>
<path d="M174.755 152.628L173.174 153.959L175.807 157.1L177.388 155.769L174.755 152.628Z" fill="#242D3C"/>
<path d="M170.213 156.92L168.886 158.506L172.033 161.149L173.36 159.563L170.213 156.92Z" fill="#242D3C"/>
<path d="M166.475 161.919L165.443 163.711L168.989 165.761L170.021 163.969L166.475 161.919Z" fill="#242D3C"/>
<path d="M163.686 167.529L162.98 169.473L166.839 170.88L167.545 168.936L163.686 167.529Z" fill="#242D3C"/>
<path d="M161.908 173.521L161.551 175.559L165.595 176.271L165.952 174.233L161.908 173.521Z" fill="#242D3C"/>
<path d="M165.278 179.725H161.172V181.794H165.278V179.725Z" fill="#242D3C"/>
<path d="M165.575 185.255L161.544 185.972L161.904 188.009L165.935 187.292L165.575 185.255Z" fill="#242D3C"/>
<path d="M166.838 190.638L162.98 192.047L163.687 193.991L167.545 192.582L166.838 190.638Z" fill="#242D3C"/>
<path d="M169.007 195.754L165.45 197.81L166.482 199.603L170.039 197.547L169.007 195.754Z" fill="#242D3C"/>
<path d="M172.033 200.399L168.886 203.041L170.212 204.627L173.36 201.985L172.033 200.399Z" fill="#242D3C"/>
<path d="M175.803 204.419L173.174 207.564L174.757 208.893L177.386 205.748L175.803 204.419Z" fill="#242D3C"/>
<path d="M180.234 207.745L178.183 211.309L179.972 212.343L182.023 208.779L180.234 207.745Z" fill="#242D3C"/>
<path d="M185.175 210.278L183.773 214.132L185.714 214.84L187.115 210.986L185.175 210.278Z" fill="#242D3C"/>
<path d="M190.44 211.848L189.728 215.9L191.761 216.259L192.474 212.207L190.44 211.848Z" fill="#242D3C"/>
<path d="M198.006 212.529H195.94V216.643H198.006V212.529Z" fill="#242D3C"/>
<path d="M203.504 211.861L201.47 212.222L202.186 216.273L204.219 215.913L203.504 211.861Z" fill="#242D3C"/>
<path d="M208.791 210.256L206.851 210.965L208.254 214.819L210.194 214.11L208.791 210.256Z" fill="#242D3C"/>
<path d="M213.723 207.766L211.935 208.802L213.99 212.363L215.778 211.327L213.723 207.766Z" fill="#242D3C"/>
<path d="M218.143 204.451L216.561 205.781L219.202 208.932L220.783 207.601L218.143 204.451Z" fill="#242D3C"/>
<path d="M221.928 200.408L220.601 201.993L223.738 204.629L225.065 203.044L221.928 200.408Z" fill="#242D3C"/>
<path d="M224.948 195.733L223.916 197.526L227.463 199.575L228.495 197.782L224.948 195.733Z" fill="#242D3C"/>
<path d="M227.125 190.659L226.42 192.604L230.28 194.009L230.985 192.064L227.125 190.659Z" fill="#242D3C"/>
<path d="M228.368 185.254L228.01 187.292L232.042 188.002L232.4 185.964L228.368 185.254Z" fill="#242D3C"/>
<path d="M232.779 179.71L228.685 179.715L228.688 181.784L232.782 181.779L232.779 179.71Z" fill="#242D3C"/>
<path d="M232.054 173.494L228.023 174.211L228.384 176.248L232.415 175.532L232.054 173.494Z" fill="#242D3C"/>
<path d="M230.278 167.504L226.431 168.908L227.138 170.852L230.985 169.448L230.278 167.504Z" fill="#242D3C"/>
<path d="M227.462 161.924L223.918 163.978L224.952 165.769L228.496 163.716L227.462 161.924Z" fill="#242D3C"/>
<path d="M223.737 156.9L220.592 159.546L221.92 161.131L225.065 158.485L223.737 156.9Z" fill="#242D3C"/>
<path d="M219.214 152.639L216.584 155.783L218.167 157.112L220.796 153.968L219.214 152.639Z" fill="#242D3C"/>
<path d="M213.977 149.172L211.931 152.725L213.72 153.759L215.766 150.206L213.977 149.172Z" fill="#242D3C"/>
<path d="M208.254 146.717L206.856 150.573L208.797 151.279L210.195 147.424L208.254 146.717Z" fill="#242D3C"/>
<path d="M202.178 145.258L201.467 149.298L203.501 149.657L204.212 145.617L202.178 145.258Z" fill="#242D3C"/>
<path d="M264.967 175.83H252.066L247.146 180.759L252.066 185.689H264.967L260.047 180.759L264.967 175.83Z" fill="#4D63F5"/>
<path d="M264.967 181.794H196.985C196.414 181.794 195.952 181.331 195.952 180.759C195.952 180.187 196.414 179.725 196.985 179.725H264.967C265.538 179.725 266 180.187 266 180.759C266 181.331 265.538 181.794 264.967 181.794Z" fill="#3E4959"/>
</svg>
