<svg width="280" height="280" viewBox="0 0 280 280" fill="none" xmlns="http://www.w3.org/2000/svg">
<path d="M276 143.321H242.028V177.208H276V143.321Z" fill="#CCCBCA"/>
<path d="M223.895 158.002H219.371V162.514H223.895V158.002Z" fill="#242D3C"/>
<path d="M232.968 158.002H228.431V162.514H232.968V158.002Z" fill="#242D3C"/>
<path d="M242.028 158.002H237.491V162.514H242.028V158.002Z" fill="#242D3C"/>
<path d="M37.972 143.321H4V177.208H37.972V143.321Z" fill="#CCCBCA"/>
<path d="M42.5086 158.002H37.972V162.514H42.5086V158.002Z" fill="#242D3C"/>
<path d="M51.5555 158.002H47.032V162.514H51.5555V158.002Z" fill="#242D3C"/>
<path d="M60.6156 158.002H56.0921V162.514H60.6156V158.002Z" fill="#242D3C"/>
<path d="M156.979 51H123.007V84.887H156.979V51Z" fill="#CCCBCA"/>
<path d="M142.262 84.887H137.738V89.4123H142.262V84.887Z" fill="#242D3C"/>
<path d="M142.262 93.9244H137.738V98.4366H142.262V93.9244Z" fill="#242D3C"/>
<path d="M142.262 102.962H137.738V107.474H142.262V102.962Z" fill="#242D3C"/>
<path d="M201.185 84.887H196.662V89.4123H201.185V84.887Z" fill="#242D3C"/>
<path d="M201.185 93.9244H196.662V98.4366H201.185V93.9244Z" fill="#242D3C"/>
<path d="M201.185 102.962H196.662V107.474H201.185V102.962Z" fill="#242D3C"/>
<path d="M219.292 84.887H214.769V89.4123H219.292V84.887Z" fill="#242D3C"/>
<path d="M210.258 84.887H205.722V89.4123H210.258V84.887Z" fill="#242D3C"/>
<path d="M201.185 84.887H196.662V89.4123H201.185V84.887Z" fill="#242D3C"/>
<path d="M253.132 87.1497C253.132 96.5028 245.523 104.093 236.146 104.093C226.77 104.093 219.16 96.5028 219.16 87.1497C219.16 77.7965 226.77 70.2061 236.146 70.2061C245.523 70.2061 253.132 77.7965 253.132 87.1497Z" fill="#4D63F5"/>
<path d="M83.3383 84.887H78.8148V89.4123H83.3383V84.887Z" fill="#242D3C"/>
<path d="M83.3383 93.9244H78.8148V98.4366H83.3383V93.9244Z" fill="#242D3C"/>
<path d="M83.3383 102.962H78.8148V107.474H83.3383V102.962Z" fill="#242D3C"/>
<path d="M65.2313 84.887H60.6947V89.4123H65.2313V84.887Z" fill="#242D3C"/>
<path d="M74.2914 84.887H69.7547V89.4123H74.2914V84.887Z" fill="#242D3C"/>
<path d="M83.3383 84.887H78.8148V89.4123H83.3383V84.887Z" fill="#242D3C"/>
<path d="M26.8678 87.1497C26.8678 96.5028 34.4772 104.093 43.8538 104.093C53.2303 104.093 60.8397 96.5028 60.8397 87.1497C60.8397 77.7965 53.2303 70.2061 43.8538 70.2061C34.4772 70.2061 26.8678 77.7965 26.8678 87.1497Z" fill="#4D63F5"/>
<path d="M60.6156 213.055V112.762C60.6156 111.421 61.1431 110.066 62.1717 109.039C63.1872 108.013 64.5587 107.487 65.9039 107.487H214.07C215.415 107.487 216.773 108.013 217.815 109.039C218.831 110.066 219.358 111.421 219.358 112.762V213.055H60.6156Z" fill="#242D3C"/>
<path d="M210.549 116.275H69.4383V204.241H210.549V116.275Z" fill="white"/>
<path d="M142.209 111.881C142.209 113.104 141.207 114.078 139.993 114.078C138.78 114.078 137.791 113.104 137.791 111.881C137.791 110.658 138.78 109.684 139.993 109.684C141.207 109.684 142.209 110.658 142.209 111.881Z" fill="#3E4959"/>
<path d="M140.89 111.881C140.89 112.368 140.495 112.749 139.993 112.749C139.492 112.749 139.11 112.354 139.11 111.881C139.11 111.407 139.505 111 139.993 111C140.481 111 140.89 111.394 140.89 111.881Z" fill="white"/>
<path d="M237.017 213.055H42.9834V216.581H237.017V213.055Z" fill="#E6E5E5"/>
<path d="M237.017 216.581C237.017 218.146 236.423 219.725 235.197 220.935C233.997 222.145 232.427 222.737 230.832 222.737H49.1553C47.5728 222.737 46.0034 222.132 44.7901 220.935C43.5768 219.725 42.9834 218.146 42.9834 216.581H237.017Z" fill="#CCCBCA"/>
<path d="M157.639 213.055H122.361V214.818H157.639V213.055Z" fill="#CCCBCA"/>
<path d="M188.907 187.429L182.814 172.367L197.915 178.445L192.033 181.549L188.907 187.429Z" fill="#242D3C"/>
<path d="M192.302 180.14L190.606 181.834L195.638 186.843L197.333 185.148L192.302 180.14Z" fill="#242D3C"/>
<path d="M190.358 123.51H176.774V126.128H190.358V123.51Z" fill="#242D3C"/>
<path d="M203.955 128.745H176.774V131.363H203.955V128.745Z" fill="#242D3C"/>
<path d="M203.955 133.994H176.774V136.612H203.955V133.994Z" fill="#242D3C"/>
<path d="M203.955 139.23H176.774V141.848H203.955V139.23Z" fill="#242D3C"/>
<path d="M170.194 153.634C170.194 170.275 156.676 183.772 139.993 183.772C123.311 183.772 109.793 170.275 109.793 153.634C109.793 136.994 123.311 123.51 139.993 123.51C156.676 123.51 170.194 136.994 170.194 153.634Z" fill="#16C6CC"/>
<mask id="mask0_395_2064" style="mask-type:luminance" maskUnits="userSpaceOnUse" x="109" y="123" width="62" height="61">
<path d="M170.194 153.634C170.194 170.275 156.676 183.772 139.993 183.772C123.311 183.772 109.793 170.275 109.793 153.634C109.793 136.994 123.311 123.51 139.993 123.51C156.676 123.51 170.194 136.994 170.194 153.634Z" fill="white"/>
</mask>
<g mask="url(#mask0_395_2064)">
<path d="M149.238 143.176H130.762L129.509 169.986H150.504L149.238 143.176Z" fill="#242D3C"/>
<path d="M119.117 175.748L119.077 175.893L117.811 179.892L116.163 185.114H163.837L162.175 179.892L160.355 174.156C160.065 173.235 159.577 172.367 158.878 171.617C158.179 170.854 157.349 170.315 156.452 169.947L146.904 166.171C146.429 165.974 145.994 165.632 145.677 165.185C145.361 164.711 145.216 164.198 145.216 163.685V159.041H134.771V163.685C134.771 164.198 134.626 164.711 134.309 165.185C134.006 165.632 133.571 165.974 133.096 166.171L123.535 169.947C122.638 170.315 121.807 170.854 121.108 171.617C120.396 172.38 119.908 173.235 119.618 174.156L119.104 175.748H119.117Z" fill="#F2F2F2"/>
<path d="M140.007 135.454C134.283 135.454 130.221 139.611 130.221 148.412C130.221 155.858 134.6 162.133 140.007 162.133C145.414 162.133 149.792 155.858 149.792 148.412C149.792 139.611 145.717 135.454 140.007 135.454Z" fill="#F2F2F2"/>
<path d="M148.777 135.928H131.223C131.223 135.928 129.984 144.663 131.566 146.452C131.632 145.728 132.278 145.531 133.439 145.518C133.439 145.518 134.415 144.439 135.127 141.427C135.655 143.466 135.417 145.597 135.417 145.597C136.67 145.689 138.2 145.82 140.007 145.82C140.468 145.82 140.903 145.82 141.312 145.794C141.312 145.794 141.853 145.478 142.077 144.689C142.407 145.11 142.46 145.742 142.46 145.742C146.205 145.531 148.302 145.097 148.42 146.439C150.029 144.65 148.777 135.915 148.777 135.915V135.928Z" fill="#242D3C"/>
<path d="M133.096 166.158C133.571 165.961 134.006 165.619 134.309 165.171C134.626 164.698 134.771 164.185 134.771 163.672V161.698H131.83C131.448 158.936 131.237 156.213 131.237 153.621C131.237 145.978 131.764 143.124 133.887 140.532C136.617 137.217 140.007 136.52 140.007 136.52C140.007 136.52 143.369 137.204 146.113 140.532C148.236 143.111 148.75 145.965 148.75 153.621C148.75 156.2 148.539 158.923 148.157 161.698H145.229V163.672C145.229 164.185 145.374 164.698 145.691 165.171C146.007 165.619 146.442 165.961 146.917 166.158L152.377 168.329C153.049 167.487 153.392 166.474 153.392 165.461V161.685C153.392 155.358 153.194 147.11 151.862 141.072C150.689 135.902 146.258 130.916 140.007 132.258C133.742 130.903 129.324 135.902 128.137 141.072C126.792 147.097 126.594 155.358 126.594 161.685V165.461C126.594 166.474 126.937 167.487 127.636 168.329L133.096 166.158Z" fill="#242D3C"/>
<path d="M124.445 185.101H155.568C154.118 181.931 153.221 177.655 153.221 172.92C153.221 171.486 153.313 170.091 153.471 168.749L150.913 167.737L149.805 172.143C149.291 174.248 148.078 176.221 146.231 177.655C144.372 179.102 142.328 179.707 140.02 179.707C137.712 179.707 135.641 179.089 133.795 177.655C131.962 176.221 130.749 174.248 130.234 172.143L129.127 167.737L126.581 168.749H126.555C126.713 170.104 126.806 171.486 126.806 172.92C126.806 177.655 125.909 181.918 124.458 185.101H124.445Z" fill="#242D3C"/>
</g>
<path d="M135.918 190.994H115.464V197.019H135.918V190.994Z" fill="#242D3C"/>
<path d="M164.536 190.994H144.095V197.019H164.536V190.994Z" fill="#4D63F5"/>
<path d="M103.212 154.924H76.0322V157.541H103.212V154.924Z" fill="#242D3C"/>
<path d="M103.212 149.688H76.0322V152.306H103.212V149.688Z" fill="#242D3C"/>
<path d="M103.212 144.466H76.0322V147.083H103.212V144.466Z" fill="#242D3C"/>
<path d="M103.212 160.172H76.0322V162.79H103.212V160.172Z" fill="#242D3C"/>
<path d="M103.212 165.408H76.0322V168.026H103.212V165.408Z" fill="#242D3C"/>
<path d="M89.6157 170.631H76.0322V173.248H89.6157V170.631Z" fill="#242D3C"/>
<path d="M103.212 123.51H76.0322V136.612H103.212V123.51Z" fill="#4D63F5"/>
</svg>
