<svg width="280" height="280" viewBox="0 0 280 280" fill="none" xmlns="http://www.w3.org/2000/svg">
  <path d="M216.08 43H160.79C155.55 43 151.26 47.28 151.26 52.53V170.09C151.26 175.33 155.55 179.61 160.79 179.61H216.08C221.32 179.61 225.6 175.33 225.6 170.09V52.53C225.6 47.28 221.33 43 216.08 43Z" fill="#242D3C"/>
  <path d="M220.2 63.65H156.65V158.96H220.2V63.65Z" fill="white"/>
  <path d="M215.2 137.81H161.65V153.96H215.2V137.81Z" fill="#16C6CC"/>
  <path d="M215.2 68.65H161.65V84.81H215.2V68.65Z" fill="#16C6CC"/>
  <path d="M215.2 89.81H161.65V132.81H215.2V89.81Z" fill="#16C6CC"/>
  <path d="M182.55 172.24C181.14 172.24 179.99 171.09 179.99 169.68V168.91C179.99 167.49 181.14 166.36 182.55 166.36H194.33C195.73 166.36 196.88 167.49 196.88 168.91V169.68C196.88 171.09 195.73 172.24 194.33 172.24H182.55Z" fill="#3E4959"/>
  <path d="M190.84 53.32C190.84 54.65 189.77 55.71 188.45 55.71C187.13 55.71 186.05 54.65 186.05 53.32C186.05 51.99 187.13 50.92 188.45 50.92C189.77 50.92 190.84 52 190.84 53.32Z" fill="#3E4959"/>
  <path d="M189.4 53.32C189.4 53.85 188.97 54.27 188.45 54.27C187.93 54.27 187.49 53.85 187.49 53.32C187.49 52.79 187.92 52.36 188.45 52.36C188.98 52.36 189.4 52.8 189.4 53.32Z" fill="#242D3C"/>
  <path d="M235.23 172.98C234.14 171.89 232.71 171.34 231.28 171.34C229.85 171.34 228.42 171.89 227.33 172.98C226.23 174.07 225.69 175.5 225.69 176.93C225.69 175.5 225.14 174.07 224.05 172.98C222.96 171.89 221.53 171.34 220.1 171.34C218.67 171.34 217.24 171.89 216.15 172.98C215.06 174.07 214.51 175.5 214.51 176.94C214.51 175.5 213.97 174.07 212.88 172.98C211.79 171.89 210.36 171.34 208.93 171.34C207.5 171.34 206.07 171.89 204.97 172.98C203.88 174.07 203.33 175.5 203.33 176.93V147.5C203.33 146.07 202.78 144.63 201.69 143.54C200.6 142.45 199.17 141.9 197.74 141.9C196.31 141.9 194.88 142.45 193.79 143.54C192.7 144.63 192.15 146.07 192.15 147.5V221.87H236.89V176.93C236.89 175.5 236.35 174.06 235.26 172.98H235.23Z" fill="white"/>
  <path d="M175.13 193.69C172.04 193.69 169.54 196.19 169.54 199.28C169.54 202.37 172.04 204.88 175.13 204.88C184.5 204.88 192.12 212.5 192.12 221.87H203.31C203.31 206.34 190.67 193.69 175.13 193.69Z" fill="white"/>
  <path d="M239.35 221.86H189.63V242.05H239.35V221.86Z" fill="#242D3C"/>
  <path d="M98.89 48.83H95.19L94.1 54.24H99.98L98.89 48.83Z" fill="#3E4959"/>
  <path d="M86.41 51.18L83.2 53.03L84.97 58.26L90.0499 55.32L86.41 51.18Z" fill="#3E4959"/>
  <path d="M76.7699 59.47L74.9299 62.66L79.0599 66.32L81.9899 61.23L76.7699 59.47Z" fill="#3E4959"/>
  <path d="M72.5699 71.44L72.5799 75.16L77.9699 76.24V70.36L72.5699 71.44Z" fill="#3E4959"/>
  <path d="M74.9299 83.93L76.7699 87.13L81.9899 85.37L79.0599 80.29L74.9299 83.93Z" fill="#3E4959"/>
  <path d="M83.2 93.57L86.41 95.42L90.0499 91.27L84.97 88.35L83.2 93.57Z" fill="#3E4959"/>
  <path d="M95.19 97.78H98.89L99.98 92.36H94.1L95.19 97.78Z" fill="#3E4959"/>
  <path d="M107.67 95.42L110.87 93.57L109.11 88.35L104.03 91.27L107.67 95.42Z" fill="#3E4959"/>
  <path d="M117.31 87.13L119.15 83.93L115.02 80.29L112.09 85.37L117.31 87.13Z" fill="#3E4959"/>
  <path d="M121.5 75.16V71.44L116.09 70.36V76.24L121.5 75.16Z" fill="#3E4959"/>
  <path d="M119.15 62.66L117.31 59.47L112.09 61.23L115.02 66.32L119.15 62.66Z" fill="#3E4959"/>
  <path d="M110.87 53.03L107.66 51.18L104.03 55.32L109.11 58.26L110.87 53.03Z" fill="#3E4959"/>
  <path d="M97.0299 54.02C86.3999 54.02 77.7499 62.65 77.7499 73.3C77.7499 83.95 86.3899 92.58 97.0299 92.58C107.67 92.58 116.34 83.95 116.34 73.3C116.34 62.65 107.69 54.02 97.0299 54.02ZM97.0299 78.64C94.0899 78.64 91.6999 76.26 91.6999 73.3C91.6999 70.34 94.0899 67.96 97.0299 67.96C99.9699 67.96 102.37 70.35 102.37 73.3C102.37 76.25 99.9899 78.64 97.0299 78.64Z" fill="#242D3C"/>
  <path d="M97.03 64.04C91.92 64.04 87.78 68.18 87.78 73.3C87.78 78.42 91.92 82.57 97.03 82.57C102.14 82.57 106.31 78.43 106.31 73.3C106.31 68.17 102.17 64.04 97.03 64.04ZM97.03 77.93C94.49 77.93 92.42 75.85 92.42 73.3C92.42 70.75 94.5 68.67 97.03 68.67C99.56 68.67 101.67 70.75 101.67 73.3C101.67 75.85 99.58 77.93 97.03 77.93Z" fill="#4D63F5"/>
  <path d="M67.49 68.66H64.61V51.15C64.61 49.52 65.24 47.99 66.4 46.85C67.54 45.71 69.07 45.07 70.7 45.07V47.95C69.84 47.95 69.04 48.28 68.44 48.89C67.83 49.49 67.5 50.3 67.5 51.15V68.66H67.49Z" fill="#242D3C"/>
  <path d="M61.41 74.74V71.86C62.26 71.86 63.07 71.53 63.68 70.92C64.28 70.32 64.61 69.52 64.61 68.66H67.49C67.49 70.29 66.86 71.82 65.71 72.96C64.56 74.11 63.03 74.74 61.41 74.74Z" fill="#242D3C"/>
  <path d="M70.69 101.53C69.06 101.53 67.54 100.9 66.39 99.74C65.24 98.61 64.61 97.08 64.61 95.45V77.94H67.49V95.45C67.49 96.31 67.82 97.11 68.42 97.71C69.03 98.32 69.84 98.66 70.69 98.66V101.54V101.53Z" fill="#242D3C"/>
  <path d="M67.49 77.94H64.61C64.61 77.08 64.28 76.28 63.68 75.68C63.07 75.07 62.27 74.74 61.41 74.74V71.86C63.03 71.86 64.56 72.49 65.71 73.64C66.86 74.78 67.49 76.3 67.49 77.94Z" fill="#242D3C"/>
  <path d="M129.46 68.66H126.58V51.15C126.58 50.29 126.25 49.49 125.65 48.89C125.04 48.28 124.24 47.94 123.38 47.94V45.06C125.01 45.06 126.53 45.69 127.68 46.85C128.82 47.99 129.46 49.51 129.46 51.14V68.65V68.66Z" fill="#242D3C"/>
  <path d="M132.66 74.74C131.04 74.74 129.51 74.11 128.36 72.96C127.21 71.81 126.58 70.28 126.58 68.66H129.46C129.46 69.52 129.79 70.32 130.39 70.92C131 71.52 131.8 71.86 132.66 71.86V74.74Z" fill="#242D3C"/>
  <path d="M123.38 101.53V98.65C124.24 98.65 125.04 98.32 125.65 97.71C126.26 97.11 126.59 96.31 126.59 95.45V77.94H129.47V95.45C129.47 97.09 128.84 98.61 127.68 99.75C126.54 100.9 125.01 101.53 123.38 101.53Z" fill="#242D3C"/>
  <path d="M129.46 77.94H126.58C126.58 76.31 127.21 74.78 128.36 73.64C129.51 72.49 131.04 71.86 132.66 71.86V74.74C131.8 74.74 131 75.07 130.39 75.68C129.79 76.28 129.46 77.08 129.46 77.94Z" fill="#242D3C"/>
  <path d="M121.14 123.42H55.11V172.84H121.14V123.42Z" fill="#E6E5E5"/>
  <path d="M116.23 128.34H60.03V167.93H116.23V128.34Z" fill="#16C6CC"/>
  <path d="M102.07 142.6C102.07 146.16 99.19 149.04 95.63 149.04C92.07 149.04 89.19 146.16 89.19 142.6C89.19 139.04 92.07 136.16 95.63 136.16C99.19 136.16 102.07 139.04 102.07 142.6Z" fill="white"/>
  <mask id="mask0_395_1710" style="mask-type:luminance" maskUnits="userSpaceOnUse" x="60" y="128" width="57" height="40">
  <path d="M116.23 128.34H60.03V167.93H116.23V128.34Z" fill="white"/>
  </mask>
  <g mask="url(#mask0_395_1710)">
  <path d="M77.66 150.3L95.28 167.93H60.03L77.66 150.3Z" fill="#131A26"/>
  <path d="M104.2 137.27L134.86 167.93H73.54L104.2 137.27Z" fill="#242D3C"/>
  <path d="M95.28 167.93H73.54L84.41 157.06L95.28 167.93Z" fill="#3E4959"/>
  </g>
  <path d="M48.7 171.79H46.13V169.3H48.7V171.79ZM48.7 166.81H46.13V164.32H48.7V166.81ZM48.7 161.83H46.13V159.34H48.7V161.83ZM48.7 156.85H46.13V154.36H48.7V156.85ZM48.7 151.87H46.13V149.38H48.7V151.87ZM48.7 146.89H46.13V144.4H48.7V146.89ZM48.7 141.91H46.13V139.42H48.7V141.91ZM48.7 136.93H46.13V134.44H48.7V136.93ZM48.7 131.95H46.13V129.46H48.7V131.95ZM48.7 126.97H46.13V124.48H48.7V126.97Z" fill="#242D3C"/>
  <path d="M119.93 117.01H117.39V114.44H119.93V117.01ZM114.84 117.01H112.3V114.44H114.84V117.01ZM109.75 117.01H107.21V114.44H109.75V117.01ZM104.66 117.01H102.12V114.44H104.66V117.01ZM99.57 117.01H97.03V114.44H99.57V117.01ZM94.48 117.01H91.94V114.44H94.48V117.01ZM89.39 117.01H86.85V114.44H89.39V117.01ZM84.3 117.01H81.76V114.44H84.3V117.01ZM79.21 117.01H76.67V114.44H79.21V117.01ZM74.12 117.01H71.58V114.44H74.12V117.01ZM69.03 117.01H66.49V114.44H69.03V117.01ZM63.94 117.01H61.4V114.44H63.94V117.01ZM58.85 117.01H56.31V114.44H58.85V117.01Z" fill="#242D3C"/>
  <path d="M130.13 171.79H127.56V169.3H130.13V171.79ZM130.13 166.81H127.56V164.32H130.13V166.81ZM130.13 161.83H127.56V159.34H130.13V161.83ZM130.13 156.85H127.56V154.36H130.13V156.85ZM130.13 151.87H127.56V149.38H130.13V151.87ZM130.13 146.89H127.56V144.4H130.13V146.89ZM130.13 141.91H127.56V139.42H130.13V141.91ZM130.13 136.93H127.56V134.44H130.13V136.93ZM130.13 131.95H127.56V129.46H130.13V131.95ZM130.13 126.97H127.56V124.48H130.13V126.97Z" fill="#242D3C"/>
  <path d="M119.93 181.83H117.39V179.26H119.93V181.83ZM114.84 181.83H112.3V179.26H114.84V181.83ZM109.75 181.83H107.21V179.26H109.75V181.83ZM104.66 181.83H102.12V179.26H104.66V181.83ZM99.57 181.83H97.03V179.26H99.57V181.83ZM94.48 181.83H91.94V179.26H94.48V181.83ZM89.39 181.83H86.85V179.26H89.39V181.83ZM84.3 181.83H81.76V179.26H84.3V181.83ZM79.21 181.83H76.67V179.26H79.21V181.83ZM74.12 181.83H71.58V179.26H74.12V181.83ZM69.03 181.83H66.49V179.26H69.03V181.83ZM63.94 181.83H61.4V179.26H63.94V181.83ZM58.85 181.83H56.31V179.26H58.85V181.83Z" fill="#242D3C"/>
  <path d="M135.26 122.14H122.43V109.31H135.26V122.14ZM125 119.57H132.7V111.87H125V119.57Z" fill="#242D3C"/>
  <path d="M135.26 186.96H122.43V174.13H135.26V186.96ZM125 184.39H132.7V176.69H125V184.39Z" fill="#242D3C"/>
  <path d="M53.83 122.14H41V109.31H53.83V122.14ZM43.57 119.57H51.27V111.87H43.57V119.57Z" fill="#242D3C"/>
  <path d="M53.83 186.96H41V174.13H53.83V186.96ZM43.57 184.39H51.27V176.69H43.57V184.39Z" fill="#242D3C"/>
  </svg>
  