<svg width="280" height="280" viewBox="0 0 280 280" fill="none" xmlns="http://www.w3.org/2000/svg">
<path d="M177.266 220.16H126.375L131.001 194.219H172.639L177.266 220.16Z" fill="#E6E5E5"/>
<path d="M177.266 220.16L172.639 194.219H131.001L164.295 220.16H177.266Z" fill="#CCCBCA"/>
<path d="M190.879 223.975H112.75V222.546C112.75 221.941 112.968 221.335 113.44 220.863C113.913 220.403 114.53 220.172 115.124 220.172H188.493C189.098 220.172 189.716 220.403 190.188 220.863C190.637 221.335 190.879 221.941 190.879 222.546V223.975Z" fill="white"/>
<path d="M243.441 177.446V189.762C243.441 192.209 241.418 194.219 238.96 194.219H64.681C62.2467 194.219 60.212 192.221 60.212 189.762V177.446H243.441Z" fill="white"/>
<path d="M243.441 177.446V60.4688C243.441 58.0225 241.431 56 238.96 56H64.6689C62.2225 56 60.2241 58.0225 60.2241 60.4688V177.458H243.453L243.441 177.446Z" fill="#242D3C"/>
<path d="M234.176 65.2526H69.4528V168.181H234.176V65.2526Z" fill="white"/>
<path d="M121.591 132.007H77.7731V159.873H121.591V132.007Z" fill="#CCCBCA"/>
<path d="M121.591 95.8199H77.7731V123.687H121.591V95.8199Z" fill="#16C6CC"/>
<path d="M173.742 132.007H129.924V159.873H173.742V132.007Z" fill="#CCCBCA"/>
<path d="M173.742 95.8199H129.924V123.687H173.742V95.8199Z" fill="#16C6CC"/>
<path d="M225.88 132.007H182.062V159.873H225.88V132.007Z" fill="#CCCBCA"/>
<path d="M225.88 95.8199H182.062V123.687H225.88V95.8199Z" fill="#16C6CC"/>
<path d="M225.892 73.5726H77.7731V87.512H225.892V73.5726Z" fill="#4D63F5"/>
<path d="M38.0487 112.436H100.869C104.757 112.436 107.918 115.597 107.918 119.484V216.915C107.918 220.802 104.757 223.963 100.869 223.963H38.0487C34.161 223.963 31 220.802 31 216.915V119.484C31 115.597 34.161 112.436 38.0487 112.436Z" fill="#242D3C"/>
<path d="M69.4528 122.27C67.9026 122.27 66.6793 121.034 66.6793 119.472C66.6793 117.91 67.9026 116.687 69.4528 116.687C71.003 116.687 72.2505 117.946 72.2505 119.472C72.2505 120.998 70.9909 122.27 69.4528 122.27Z" fill="#3E4959"/>
<path d="M69.4649 120.465C68.9199 120.465 68.496 120.029 68.496 119.484C68.496 118.939 68.932 118.503 69.4649 118.503C69.9978 118.503 70.4459 118.939 70.4459 119.484C70.4459 120.029 70.0099 120.465 69.4649 120.465Z" fill="white"/>
<path d="M101.523 126.533H37.4189V209.866H101.523V126.533Z" fill="white"/>
<path d="M78.4392 216.927C78.4392 215.691 77.434 214.686 76.1987 214.686H62.7311C61.4958 214.686 60.4906 215.704 60.4906 216.927C60.4906 218.162 61.5079 219.167 62.7311 219.167H76.1987C77.434 219.167 78.4392 218.15 78.4392 216.927Z" fill="#3E4959"/>
<path d="M96.3273 131.716H42.6024V144.299H96.3273V131.716Z" fill="#4D63F5"/>
<path d="M67.6482 149.7H42.6024V174.491H67.6482V149.7Z" fill="#16C6CC"/>
<path d="M96.3273 149.7H71.2816V174.491H96.3273V149.7Z" fill="#16C6CC"/>
<path d="M67.6482 179.892H42.6024V204.683H67.6482V179.892Z" fill="#CCCBCA"/>
<path d="M96.3273 179.892H71.2816V204.683H96.3273V179.892Z" fill="#CCCBCA"/>
<path d="M243.441 144.311H211.153C208.101 144.311 205.594 146.818 205.594 149.87V218.525C205.594 221.589 208.101 224.084 211.153 224.084H243.441C246.493 224.084 249 221.577 249 218.525V149.87C249 146.806 246.505 144.311 243.441 144.311Z" fill="#242D3C"/>
<path d="M245.875 156.373H208.743V212.034H245.875V156.373Z" fill="white"/>
<path d="M223.869 219.785C223.034 219.785 222.368 219.107 222.368 218.283V217.835C222.368 217.011 223.034 216.333 223.869 216.333H230.749C231.56 216.333 232.226 217.011 232.226 217.835V218.283C232.226 219.107 231.56 219.785 230.749 219.785H223.869Z" fill="#3E4959"/>
<path d="M228.702 150.342C228.702 151.117 228.096 151.735 227.321 151.735C226.546 151.735 225.904 151.105 225.904 150.342C225.904 149.579 226.546 148.937 227.321 148.937C228.096 148.937 228.702 149.567 228.702 150.342Z" fill="#3E4959"/>
<path d="M227.866 150.342C227.866 150.645 227.612 150.899 227.321 150.899C226.994 150.899 226.752 150.645 226.752 150.342C226.752 150.039 227.006 149.773 227.321 149.773C227.624 149.773 227.866 150.027 227.866 150.342Z" fill="#242D3C"/>
<path d="M243.041 159.183H211.552V168.569H243.041V159.183Z" fill="#4D63F5"/>
<path d="M243.041 171.391H211.552V188.89H243.041V171.391Z" fill="#16C6CC"/>
<path d="M243.041 191.712H211.552V209.212H243.041V191.712Z" fill="#CCCBCA"/>
</svg>
